# xmcd
#
# Track frame offsets: 
#        150
#        15140
#        30340
#        61842
#        88472
#        108517
#        128445
#        157597
#
# Disc length: 2326 seconds
#
# Revision: 1
# Processed by: cddbd v1.5.1PL0 Copyright (c) Steve Scherf et al.
# Submitted via: ExactAudioCopy v0.90b3
#
DISCID=4b091408
DTITLE=Eddie 'Cleanhead' Vinson - Eddie Cleanhead Vinson and Roomful of 
DTITLE=Blues
DYEAR=1982
DGENRE=Blues
TTITLE0=House Of Joy
TTITLE1=He Was A Friend of Mine
TTITLE2=Movin' With Lester
TTITLE3=No Bones
TTITLE4=That's The Groovy Thing
TTITLE5=Past Sixty Blues
TTITLE6=Street Lights
TTITLE7=Farmer's Daughter Blues
EXTD=
EXTT0=
EXTT1=
EXTT2=
EXTT3=
EXTT4=
EXTT5=
EXTT6=
EXTT7=
PLAYORDER=
